# xmcd
#
# Track frame offsets: 
#        150
#        34425
#        52875
#        85875
#        122475
#
# Disc length: 3842 seconds
#
# Revision: 0
# Processed by: cddbd v1.5.2PL0 Copyright (c) Steve Scherf et al.
# Submitted via: ExactAudioCopy v1.0b3
#
DISCID=380f0005
DTITLE=Various Artist - Spa - Stillhet och harmoni
DYEAR=2007
DGENRE=New Age
TTITLE0=Tommy Kaså and Magnus Göransson - Morning Light
TTITLE1=Tomas Edström - Secrets of Pearls
TTITLE2=Andreas Andersson - Deep Blue
TTITLE3=Andreas Andersson - Peaceful Mind
TTITLE4=Peter Heddelin - Johan Appel - The Awakening
EXTD=
EXTT0=
EXTT1=
EXTT2=
EXTT3=
EXTT4=
PLAYORDER=
